<svg xmlns="http://www.w3.org/2000/svg" viewBox="0 0 64 64" role="img" aria-labelledby="title">
  <title id="title">Prompt Bubbles Icon</title>
  <defs>
    <radialGradient id="bubbleGradient" cx="32" cy="18" r="32" gradientUnits="userSpaceOnUse">
      <stop offset="0" stop-color="#76c8ff" />
      <stop offset="1" stop-color="#1b4c9c" />
    </radialGradient>
    <linearGradient id="tailGradient" x1="26" y1="44" x2="10" y2="60" gradientUnits="userSpaceOnUse">
      <stop offset="0" stop-color="#5aa9f9" />
      <stop offset="1" stop-color="#1a3a6b" />
    </linearGradient>
  </defs>
  <circle cx="32" cy="28" r="24" fill="url(#bubbleGradient)" />
  <path d="M22 40c-6 0-10 4-10 8.5 0 2.4 1.1 4.7 3.2 6.3l6.8 5.2c1.4 1.1 3.3 0.8 4.4-0.6l3.1-4c0.9-1.2 0.7-2.9-0.4-3.9l-2.7-2.4c5 1.2 10.7-0.8 14.5-5.1 8.5-9.6 1.6-24-11.2-24Z" fill="url(#tailGradient)" />
  <circle cx="41" cy="23" r="7" fill="#e1f2ff" opacity="0.82" />
  <circle cx="27" cy="16" r="4" fill="#f5fbff" opacity="0.78" />
</svg>
